<?xml version="1.0"?>
<svg xmlns="http://www.w3.org/2000/svg" height="512px" viewBox="0 0 192 192" width="512px"><g><path d="m161.356 150.042a40.05 40.05 0 1 0 -11.314 11.314l28.3 28.3 11.314-11.314zm-33.356 1.958a24 24 0 1 1 24-24 24.027 24.027 0 0 1 -24 24z" data-original="#000000" class="active-path" data-old_color="#000000" fill="#00479E"/><path d="m84.382 108h-22.315c4.512 29.262 15.674 48 25.933 48a8.515 8.515 0 0 0 1.006-.062 47.835 47.835 0 0 1 -4.624-47.938z" data-original="#000000" class="active-path" data-old_color="#000000" fill="#00479E"/><path d="m124 80v.18c1.321-.11 2.653-.18 4-.18a47.931 47.931 0 0 1 37.829 18.507 80.117 80.117 0 0 0 -.361-38.507h-42.452c.649 6.468.984 13.173.984 20z" data-original="#000000" class="active-path" data-old_color="#000000" fill="#00479E"/><path d="m60 80a191.028 191.028 0 0 0 1.027 20h28.022a48.136 48.136 0 0 1 26.931-18.475c0-.511.02-1.011.02-1.525a191.028 191.028 0 0 0 -1.027-20h-53.946a191.028 191.028 0 0 0 -1.027 20z" data-original="#000000" class="active-path" data-old_color="#000000" fill="#00479E"/><path d="m61.659 21.946c3.807-9.519 8.478-16.6 13.692-20.936a80.245 80.245 0 0 0 -62.283 50.99h40.9a133.784 133.784 0 0 1 7.691-30.054z" data-original="#000000" class="active-path" data-old_color="#000000" fill="#00479E"/><path d="m52 80c0-6.827.335-13.532.984-20h-42.452a80.255 80.255 0 0 0 0 40h42.452c-.649-6.468-.984-13.173-.984-20z" data-original="#000000" class="active-path" data-old_color="#000000" fill="#00479E"/><path d="m61.659 138.054a133.784 133.784 0 0 1 -7.69-30.054h-40.9a80.245 80.245 0 0 0 62.283 50.99c-5.215-4.34-9.886-11.417-13.693-20.936z" data-original="#000000" class="active-path" data-old_color="#000000" fill="#00479E"/><path d="m113.933 52c-4.512-29.262-15.674-48-25.933-48s-21.421 18.738-25.933 48z" data-original="#000000" class="active-path" data-old_color="#000000" fill="#00479E"/><path d="m114.341 21.946a133.784 133.784 0 0 1 7.69 30.054h40.9a80.245 80.245 0 0 0 -62.282-50.99c5.214 4.34 9.885 11.417 13.692 20.936z" data-original="#000000" class="active-path" data-old_color="#000000" fill="#00479E"/></g> </svg>
