<?xml version="1.0"?>
<svg xmlns="http://www.w3.org/2000/svg" height="512px" viewBox="0 0 64 64" width="512px"><g><path d="m57 3a4 4 0 0 0 -4 4c0 3 4 8 4 8s4-5 4-8a4 4 0 0 0 -4-4z" fill="#9bc9ff" data-original="#9BC9FF"/><path d="m54.07 59.73a4 4 0 0 0 5.66-5.66l-16.97-16.97-5.66 5.66z" fill="#9bc9ff" data-original="#9BC9FF"/><path d="m23 43a19.863 19.863 0 0 0 12.65-4.52 18.93 18.93 0 0 0 2.83-2.83 19.992 19.992 0 1 0 -15.48 7.35zm0-36a16 16 0 1 1 -16 16 16 16 0 0 1 16-16z" fill="#9bc9ff" data-original="#9BC9FF"/><path d="m31 19a8 8 0 0 0 -16 0c0 6 8 16 8 16s8-10 8-16zm-12 0a4 4 0 1 1 4 4 4 4 0 0 1 -4-4z" fill="#9bc9ff" data-original="#9BC9FF"/><path d="m11 52a4 4 0 0 0 -8 0c0 3 4 8 4 8s4-5 4-8z" fill="#9bc9ff" data-original="#9BC9FF"/><g fill="#57a4ff"><path d="m23 6a17 17 0 1 0 17 17 17.019 17.019 0 0 0 -17-17zm0 32a15 15 0 1 1 15-15 15.017 15.017 0 0 1 -15 15z" data-original="#57A4FF" class="active-path" style="fill:#00479E" data-old_color="#57A4FF"/><path d="m43.465 36.394a1.029 1.029 0 0 0 -1.414 0l-.707.706-1.544-1.548a21.081 21.081 0 1 0 -4.248 4.248l1.548 1.544-.706.707a1 1 0 0 0 0 1.414l16.97 16.97a5 5 0 0 0 7.071-7.071zm-39.465-13.394a19 19 0 1 1 19 19 19.021 19.021 0 0 1 -19-19zm34.516 14.1 1.41 1.41-1.416 1.416-1.41-1.41q.743-.673 1.416-1.416zm20.505 21.921a3.075 3.075 0 0 1 -4.243 0l-16.263-16.263 4.243-4.243 16.263 16.263a3 3 0 0 1 0 4.243z" data-original="#57A4FF" class="active-path" style="fill:#00479E" data-old_color="#57A4FF"/><path d="m55.535 55.535h2v2h-2z" transform="matrix(.707 -.707 .707 .707 -23.418 56.535)" data-original="#57A4FF" class="active-path" style="fill:#00479E" data-old_color="#57A4FF"/><path d="m50.586 47.586h2v7.999h-2z" transform="matrix(.707 -.707 .707 .707 -21.368 51.586)" data-original="#57A4FF" class="active-path" style="fill:#00479E" data-old_color="#57A4FF"/><path d="m23 10a9.01 9.01 0 0 0 -9 9c0 6.278 7.884 16.2 8.219 16.625a1 1 0 0 0 1.562 0c.335-.42 8.219-10.347 8.219-16.625a9.01 9.01 0 0 0 -9-9zm0 23.354c-1.974-2.654-7-9.842-7-14.354a7 7 0 0 1 14 0c0 4.507-5.027 11.7-7 14.354z" data-original="#57A4FF" class="active-path" style="fill:#00479E" data-old_color="#57A4FF"/><path d="m23 14a5 5 0 1 0 5 5 5.006 5.006 0 0 0 -5-5zm0 8a3 3 0 1 1 3-3 3 3 0 0 1 -3 3z" data-original="#57A4FF" class="active-path" style="fill:#00479E" data-old_color="#57A4FF"/><path d="m57 16a1 1 0 0 0 .781-.375c.432-.54 4.219-5.368 4.219-8.625a5 5 0 0 0 -10 0c0 3.257 3.787 8.085 4.219 8.625a1 1 0 0 0 .781.375zm0-12a3 3 0 0 1 3 3c0 1.743-1.763 4.6-3 6.334-1.238-1.734-3-4.588-3-6.334a3 3 0 0 1 3-3z" data-original="#57A4FF" class="active-path" style="fill:#00479E" data-old_color="#57A4FF"/><path d="m56 6h2v2h-2z" data-original="#57A4FF" class="active-path" style="fill:#00479E" data-old_color="#57A4FF"/><path d="m7 47a5.006 5.006 0 0 0 -5 5c0 3.257 3.787 8.085 4.219 8.625a1 1 0 0 0 1.562 0c.432-.54 4.219-5.368 4.219-8.625a5.006 5.006 0 0 0 -5-5zm0 11.334c-1.238-1.734-3-4.588-3-6.334a3 3 0 0 1 6 0c0 1.743-1.763 4.6-3 6.334z" data-original="#57A4FF" class="active-path" style="fill:#00479E" data-old_color="#57A4FF"/><path d="m6 51h2v2h-2z" data-original="#57A4FF" class="active-path" style="fill:#00479E" data-old_color="#57A4FF"/><path d="m56 18h2v4h-2z" data-original="#57A4FF" class="active-path" style="fill:#00479E" data-old_color="#57A4FF"/><path d="m56 24h2v4h-2z" data-original="#57A4FF" class="active-path" style="fill:#00479E" data-old_color="#57A4FF"/><path d="m54 30h4v2h-4z" data-original="#57A4FF" class="active-path" style="fill:#00479E" data-old_color="#57A4FF"/><path d="m48 30h4v2h-4z" data-original="#57A4FF" class="active-path" style="fill:#00479E" data-old_color="#57A4FF"/><path d="m16 59h4v2h-4z" data-original="#57A4FF" class="active-path" style="fill:#00479E" data-old_color="#57A4FF"/><path d="m10 59h4v2h-4z" data-original="#57A4FF" class="active-path" style="fill:#00479E" data-old_color="#57A4FF"/><path d="m22 51h2v4h-2z" data-original="#57A4FF" class="active-path" style="fill:#00479E" data-old_color="#57A4FF"/><path d="m22 57h2v4h-2z" data-original="#57A4FF" class="active-path" style="fill:#00479E" data-old_color="#57A4FF"/></g></g> </svg>
